<svg id="Layer_1" data-name="Layer 1" xmlns="http://www.w3.org/2000/svg" xmlns:xlink="http://www.w3.org/1999/xlink" viewBox="0 0 1080 1080"><defs><style>.cls-1{fill:#009444;}.cls-2{fill:#0013de;}.cls-3{fill:#fcfdfc;}.cls-4{fill:url(#linear-gradient);}</style><linearGradient id="linear-gradient" x1="329.73" y1="441.46" x2="817.36" y2="441.46" gradientUnits="userSpaceOnUse"><stop offset="0" stop-color="#20a7db"/><stop offset="0.08" stop-color="#1d98db"/><stop offset="0.39" stop-color="#105fdc"/><stop offset="0.66" stop-color="#0736dd"/><stop offset="0.87" stop-color="#021cde"/><stop offset="1" stop-color="#0013de"/></linearGradient></defs><path class="cls-1" d="M183.18,763.3c-.56-3.91-2.92-6.64-6.34-7.36a5.45,5.45,0,0,0-3.08,5.14,0,0,0,0,0,0,0,.28.28,0,0,0,0,.09c2.79,1.95,3.29,4.59,2.36,7.69-.29,1-.36,2-.63,2.92a26.57,26.57,0,0,1-3.69,8.32c-1.13,1.59-2.18,1.58-3-.18-1.85-3.82-3.91-7.6-4.19-12,0,0,0,0,0-.06a.71.71,0,0,0,0-.14c-1.42-1.53-.9-3.72-1.87-5.4-.77-.53-.59-1.43-.69-2.14A231.13,231.13,0,0,1,160.08,723c0-2-.11-3.94-1.59-5.38-6.56-6.34-13.72-5.59-18.78.11-8.39,9.44-10.5,20.64-7.26,32.71,1.1,4.08,3.85,7.22,8.4,7.87,4.79.68,8.16-1.74,10.87-5.4.3-.41.26-1.16,1-1.17.29,2.5.68,5,.85,7.44.24,3.69,1.43,7.25,1.44,11a7.14,7.14,0,0,0,2.06,5.19,37.07,37.07,0,0,0,3.78,10.13c3.59,7.09,11.55,7.94,16.13,1.39C181.87,779.83,184.44,772,183.18,763.3Zm-35.92-15.4c-1,1.62-2.17,3.49-4.42,3s-2.94-2.64-3.29-4.73a29.32,29.32,0,0,1,3.89-20.87A9.45,9.45,0,0,1,148.5,721c2.38-.76,3.44,0,3.46,2.49v4.69C152.26,735.16,151.09,741.86,147.26,747.9Z"/><path class="cls-2" d="M135.54,784.79a32.22,32.22,0,0,1-11.42-2.17c-7.18-2.71-12.56-8.14-16.44-16.59-10.72-23.32-6.16-53.3,10.84-71.27a45.56,45.56,0,0,1,33-14.13,42.07,42.07,0,0,1,17.29,3.62c9.18,4.08,15.56,11.44,19,21.86,4.63,14.17,3.64,28.5-2.94,42.59a10.05,10.05,0,0,1-.63,1.1,4.69,4.69,0,0,1-3.87,2.27,3.64,3.64,0,0,1-2.16-.7,4.09,4.09,0,0,1-1-5.91,27.37,27.37,0,0,0,3.47-8c2.86-10.56,2.67-20.19-.6-29.42-4.25-12-15-19.51-28.12-19.51-1.1,0-2.23.05-3.35.16-13.49,1.28-23.86,8.25-30.84,20.72-8.9,15.9-10.26,32.76-4.06,50.13,2.34,6.53,5.42,10.84,9.73,13.56a22.28,22.28,0,0,0,12,3.69c4.48,0,9.21-1.49,14.06-4.44a35.75,35.75,0,0,0,3.18-2.26c.51-.39,1-.78,1.54-1.16l2.18.63,2,5.18-1,1.91a5.05,5.05,0,0,0-1.81,1.12,13.6,13.6,0,0,1-1.14.86C148.26,782.73,141.89,784.79,135.54,784.79Z"/><path class="cls-2" d="M155,770.12q1,2.58,2,5.18c-1.36.35-2.26,1.43-3.38,2.16-9.08,5.94-18.74,7.73-29.06,3.82-7.59-2.87-12.37-8.72-15.65-15.85-10.65-23.19-5.59-52.59,10.58-69.69,12.33-13,32.3-17.47,48.67-10.18,9.21,4.1,15.08,11.49,18.19,21,4.64,14.2,3.42,28.06-2.88,41.53a8.56,8.56,0,0,1-.53.93c-1,1.51-2.75,2.09-4,1.19a2.66,2.66,0,0,1-.63-4,28.92,28.92,0,0,0,3.65-8.38c2.75-10.15,2.91-20.26-.63-30.27-4.87-13.78-17.8-21.75-33-20.31-14.51,1.38-25,9-32,21.45-9.16,16.39-10.47,33.61-4.15,51.31,2,5.7,5,11,10.31,14.29,9.28,5.86,18.53,4.75,27.57-.74C151.9,772.58,153.42,771.29,155,770.12Z"/><path class="cls-2" d="M434,795.73A63.35,63.35,0,0,1,419.27,794c-12.13-2.91-20.37-10.83-24.49-23.52-4.49-13.85-4.72-28.19-4.37-40.4.34-11.46,1.92-21.28,4.81-30a29,29,0,0,1,7.33-12.17,18.26,18.26,0,0,1,13.06-5h.21a12.51,12.51,0,0,1,12.54,9.55c2.57,8.91,2.67,18.46.29,29.22a9.55,9.55,0,0,1-1.76,4.1l-.42.35a2.07,2.07,0,0,1-1,.26,1.85,1.85,0,0,1-1.75-1.22,6.21,6.21,0,0,0-1.5-2,11.77,11.77,0,0,1-1.59-1.87l-.14-1.24c2.13-6.16,1.87-12.59,1.42-18.65a19.53,19.53,0,0,0-1.35-6.39c-1.15-2.65-2.82-3.88-5.25-3.88a8.66,8.66,0,0,0-1.7.17c-3.82.73-6.62,3-8.82,7.1-3,5.53-4.14,11.57-4.84,16.22-2.75,18.26-2.26,34.67,1.48,50.13,1.87,7.72,5.31,13.35,10.51,17.19,4.1,3,9.13,4.83,15.38,5.47a63.89,63.89,0,0,0,6.7.35,50.29,50.29,0,0,0,26.5-7.17,26.63,26.63,0,0,0,9.71-9.58,4.81,4.81,0,0,1,4.07-2.66,3.81,3.81,0,0,1,2,.54,3.73,3.73,0,0,1,1.82,2.37,5.15,5.15,0,0,1-.8,3.93,37.64,37.64,0,0,1-15.7,14A61.73,61.73,0,0,1,434,795.73Z"/><path class="cls-2" d="M421.85,720.44c2.16-6.28,2-12.75,1.49-19.23a20.85,20.85,0,0,0-1.46-6.86c-1.66-3.8-4.46-5.32-8.54-4.54-4.65.89-7.67,3.83-9.82,7.84-2.79,5.21-4.12,10.89-5,16.67C396,731.3,396,748.24,400,765c1.72,7.11,4.94,13.48,11,18,4.78,3.55,10.3,5.15,16.08,5.75,12.07,1.24,23.59-.65,34.1-7a28,28,0,0,0,10.2-10.09c1-1.75,2.69-2.4,4.08-1.59s1.63,2.52.52,4.31a36.32,36.32,0,0,1-15.13,13.44,59.49,59.49,0,0,1-41.33,4.76c-12.12-2.91-19.67-10.88-23.46-22.57-4.22-13-4.7-26.42-4.3-39.91a103,103,0,0,1,4.73-29.62,27.65,27.65,0,0,1,7-11.58,16.87,16.87,0,0,1,12.27-4.63A11.09,11.09,0,0,1,427,692.76c2.74,9.46,2.38,19,.27,28.51a8.29,8.29,0,0,1-1.47,3.51.47.47,0,0,1-.71-.2C424.43,722.85,422.78,721.93,421.85,720.44Z"/><path class="cls-2" d="M245,795.84a48.44,48.44,0,0,1-18.82-4c-8.87-3.74-14.94-11.16-18.54-22.69-2.51-8-3.84-16.74-4.19-27.52-.38-11.42-.39-24.86,2.36-38a36.19,36.19,0,0,1,4.94-12.78,17.43,17.43,0,0,1,14.71-8.13,18.87,18.87,0,0,1,4,.44c4.76,1.06,8,4.16,9.76,9.22,2.21,6.53,2.13,13.35,1.74,19.15-.28,4.41-.67,8.36-2.46,12.14l-1.08.8a5.73,5.73,0,0,1-.81.06c-2.32,0-3.77-1.54-4.93-2.77l-.34-1.36a51.43,51.43,0,0,0,1-22,8.26,8.26,0,0,0-.24-1l-.08-.3c-.83-3.09-1.95-5.27-4.77-5.86a10.25,10.25,0,0,0-1.95-.2,8.9,8.9,0,0,0-6.58,3.07c-2.73,2.9-4.41,6.76-5.27,12.17-3.14,19.65-3.05,37.55.3,54.72a46.08,46.08,0,0,0,4,11.75c4.19,8.45,11.23,13.23,21.52,14.6a45.16,45.16,0,0,0,6.05.42,35.6,35.6,0,0,0,16-3.65c6.31-3.15,10.18-7,12.19-12.26a4.44,4.44,0,0,1,4-3,4,4,0,0,1,1.93.5c1,.56,3.19,2.26,1.46,5.95a31.1,31.1,0,0,1-13.42,14.54A46.8,46.8,0,0,1,245,795.84Z"/><path class="cls-2" d="M232.68,720.82a53.2,53.2,0,0,0,1-22.63,12.39,12.39,0,0,0-.35-1.46c-.86-3.23-2.22-6.13-5.86-6.89a10.14,10.14,0,0,0-9.86,3.29c-3.41,3.61-4.89,8.2-5.65,12.92-2.94,18.41-3.27,36.85.31,55.22a47.94,47.94,0,0,0,4.07,12.12c4.66,9.38,12.56,14,22.62,15.39,7.93,1.05,15.67.23,22.9-3.38,5.72-2.86,10.49-6.79,12.89-13,.7-1.82,2.45-2.58,3.94-1.76,1.8,1,1.55,2.6.86,4.09a29.8,29.8,0,0,1-12.82,13.89c-13,7.08-26.53,7.66-40.1,1.95-9.61-4-14.73-12.21-17.73-21.8a101.32,101.32,0,0,1-4.12-27.14c-.42-12.62-.27-25.21,2.33-37.64a34.94,34.94,0,0,1,4.74-12.28,16,16,0,0,1,17.21-7.08c4.51,1,7.27,4,8.71,8.28,2.06,6,2.09,12.32,1.67,18.6-.25,4-.58,7.94-2.32,11.61C235.13,723.4,233.9,722.11,232.68,720.82Z"/><path class="cls-1" d="M363.68,751.25a6.47,6.47,0,0,0-3.81,2.2A17.8,17.8,0,0,1,352,758.4c-12.08,3.91-23.89-1.42-24.57-16.49-.06-1.37.1-1.84,1.69-1.41,4.4,1.2,8.83,2.23,13.28,3.22a11.74,11.74,0,0,0,9.93-2c4.38-3.26,5.85-7.8,5.15-13A13.93,13.93,0,0,0,347.92,717c-10.88-4-22.07,1.24-26.28,12.14-.34.9-.17,2.21-1.53,2.53-.36,1.84-1.63,3.6-.52,5.58.09,3.47-.14,6.94.47,10.41,2,11.35,9.59,18.69,21,20,7.66.88,14.58-1.23,21.11-5.14a9.73,9.73,0,0,0,5-6.56C367,753.58,365.61,752.23,363.68,751.25ZM328.84,732.4a12.71,12.71,0,0,1,12.3-8.87,9.73,9.73,0,0,1,7.2,2.88,6.87,6.87,0,0,1,1,7.89c-1.44,2.47-3.73,3.18-7,2.45-4.14-.94-8.31-1.76-12.5-2.51C328.55,734,328.51,733.49,328.84,732.4Z"/><path class="cls-1" d="M561.6,753.35a7.11,7.11,0,0,0-3.16,2.06,20.92,20.92,0,0,1-4.67,3.33c-12.71,6.92-26.5-.53-27.33-14.68-.11-1.86.42-2.16,2.11-1.76,3.94.93,7.92,1.71,11.88,2.54C551,747,558.77,739,556.34,728.48c-1.59-6.9-8.05-11.65-16.1-11.83a20.27,20.27,0,0,0-20.08,14.81c-.25.82.2,2.13-1.21,2.4-.09,1.92-.89,3.79-.44,5.75a69.93,69.93,0,0,0,.47,8.29c1.59,9.83,6.18,17.23,16.21,20.19a29,29,0,0,0,20.24-1.37c4.4-1.91,9-3.82,10.49-9.17C565.59,754.88,563.91,753.26,561.6,753.35Zm-34-19.77a12.77,12.77,0,0,1,17.19-8,7.2,7.2,0,0,1,4.51,6.87c.06,3.55-2.81,6.53-6.08,5.79-4.67-1-9.46-1.08-14.13-2C527.33,735.86,527,735.32,527.62,733.58Z"/><path class="cls-1" d="M421.85,720.44c2,.77,3,2.58,3.93,4.34a43.82,43.82,0,0,0-2.6,17.39,24,24,0,0,0,1.14,7.14c1.31,3.74,3.37,6.88,7.68,7.42s7.77-1.37,10.31-4.79c2.7-3.62,3.93-7.87,4.75-12.24a110.73,110.73,0,0,0,1.61-14.64,4.64,4.64,0,0,1,7.55-3.7c2,1.5,1.81,3.6,1.4,5.66a71.83,71.83,0,0,0-1.34,8.64,45.07,45.07,0,0,0,1.5,15.64,9.34,9.34,0,0,0,2.89,4.65,2.68,2.68,0,0,0,2.29,1c2.68-.63,4.47.53,5.88,2.62.28,2.28-.16,4.3-2.09,5.78-6.25,3.5-13.32-.27-17.14-9.91-.66.88-1.22,1.64-1.8,2.39-6.53,8.39-19.33,9.89-26.74,3.13-3.32-3-4.88-7-5.74-11.19-1.45-7.08-.76-14.17.25-21.24.19-1.27.27-2.56.57-3.79C416.89,721.65,418.63,720.39,421.85,720.44Z"/><path class="cls-1" d="M232.68,720.82l4.49,2.27c-.57,5.5-2.16,10.86-1.89,16.47.22,4.54.13,9.1,2.17,13.35,2.12,4.42,6.17,5.18,9.6,1.66s4.48-8.16,5.38-12.78c1-5.26,1.11-10.6,1.3-15.93.08-2.17.87-3.88,3-4.67a4.1,4.1,0,0,1,4.77,1.45,4.77,4.77,0,0,1,1,4.19,56.71,56.71,0,0,0-.17,20.78,19.44,19.44,0,0,0,1.86,5.65c1.05,1.92,2.12,3.85,4.91,3.65a3,3,0,0,1,3,2c.19.48.29,1,.95.92-.47,2.45-1.1,4.83-3.39,6.31-5.93,2-10.7-2.46-13.24-7.67-.42-.88-.71-1.82-1.14-2.91a34.93,34.93,0,0,1-3.28,4.56c-7,7.56-17.95,5.78-22.21-3.67a34.51,34.51,0,0,1-2.68-14.77,101.55,101.55,0,0,1,1.12-15.08C228.63,723.91,229.61,721.54,232.68,720.82Z"/><path class="cls-2" d="M319.22,738.6a35,35,0,0,1-9-3.72c-6.49-3.9-10.12-9.88-10.79-17.77-1.21-14.25,6.62-31.87,26.64-36.87a62.41,62.41,0,0,1,15.05-1.91A55.25,55.25,0,0,1,358.22,681,25.72,25.72,0,0,1,372,690.78c4.46,6.38,3.79,15.56-1.54,20.9a11.37,11.37,0,0,1-8.26,3.59,13.51,13.51,0,0,1-4-.63,35,35,0,0,1-5.52-2.37,40.14,40.14,0,0,0-4.1-1.87,21.78,21.78,0,0,0-7.58-1.51,15.7,15.7,0,0,0-4.68.7,10.66,10.66,0,0,0-3.49,1.82,4.78,4.78,0,0,1-2.92,1.15,3.66,3.66,0,0,1-3-1.66c-1.43-1.93-1-4.25,1-5.9a19.87,19.87,0,0,1,13-4.32c.95,0,1.94.05,2.95.15,5.63.54,10.54,3,15.29,5.41A6.32,6.32,0,0,0,362,707c2.71,0,4-2.43,4.46-3.88a8.4,8.4,0,0,0-.86-7.23,13.51,13.51,0,0,0-6.85-5.76,47,47,0,0,0-18.35-4A43,43,0,0,0,320,691.46c-10,5.36-15.28,18.8-11.43,29.34,1.54,4.23,4.61,7,9.37,8.57.61.19,1.22.41,1.83.63l.81.29.85.81a5.44,5.44,0,0,1-.15,4,3.7,3.7,0,0,0-.29,1.81Z"/><path class="cls-2" d="M320.11,731.64c.8,2-1,3.66-.52,5.57a33.44,33.44,0,0,1-8.64-3.56c-6.29-3.77-9.49-9.46-10.1-16.66-1.25-14.79,7.14-30.76,25.55-35.36a55.84,55.84,0,0,1,31.38.77,24.49,24.49,0,0,1,13,9.2c4.06,5.8,3.52,14.16-1.37,19.07a10.14,10.14,0,0,1-10.8,2.6c-3.35-1-6.28-3-9.55-4.21-4.31-1.59-8.67-2.23-13.17-.84a12.22,12.22,0,0,0-4,2.06c-1.37,1.07-2.82,1.26-3.91-.23s-.55-2.88.77-3.94c4.38-3.52,9.48-4.38,14.9-3.86s10.06,2.89,14.78,5.27c4.16,2.1,7.75.46,9.27-3.93a9.79,9.79,0,0,0-1-8.4,15.12,15.12,0,0,0-7.54-6.38c-13.51-5.73-27-5.51-39.94,1.39-10.81,5.77-16.09,20.18-12.11,31.09,1.8,4.92,5.4,7.87,10.28,9.44C318.38,731,319.24,731.34,320.11,731.64Z"/><path class="cls-2" d="M518.12,741c-5.84-1.66-11-3.4-15-7.94-4.82-5.43-6.6-12.14-5.45-20.5,2.47-18,16.66-31.18,36.16-33.68a45.71,45.71,0,0,1,5.88-.39,36.17,36.17,0,0,1,23.47,8.25c6.88,5.6,9.46,12.42,7.68,20.27-1.25,5.49-5.15,8.9-10.19,8.9a13.1,13.1,0,0,1-5.36-1.22c-1.08-.48-2.14-1-3.2-1.52-3.2-1.57-6.22-3-9.65-3.48a21.74,21.74,0,0,0-2.71-.18,12.57,12.57,0,0,0-8.42,2.9,4.51,4.51,0,0,1-2.91,1.2,3.69,3.69,0,0,1-2.88-1.44c-1.57-1.87-1.31-4.21.65-6a19.62,19.62,0,0,1,13.49-4.86,33.44,33.44,0,0,1,16.17,4.5l.31.18a24,24,0,0,0,2.94,1.43,4.13,4.13,0,0,0,1.38.28c.42,0,1.68,0,2.48-2.19a8.46,8.46,0,0,0-.57-7.1c-2.83-5.35-7.61-8.9-14.21-10.57A41.49,41.49,0,0,0,538,686.53c-9.85,0-18.53,4.08-25.79,12.12a25.4,25.4,0,0,0-6.46,21.57c1,6.29,5.28,10.56,11.81,11.73a8.41,8.41,0,0,1,1.33.39l.46.16.88.78c.89,2,.39,3.79,0,5.38-.11.41-.22.82-.31,1.23Z"/><path class="cls-2" d="M519,733.86c.89,2-.06,3.85-.44,5.75-5.3-1.51-10.49-3.17-14.34-7.51-5-5.61-6.08-12.26-5.1-19.35,2.58-18.83,17.59-30.24,34.93-32.46,10.4-1.34,20,.84,28.26,7.55,5.92,4.83,9,11,7.18,18.84-1.53,6.76-7.27,9.51-13.57,6.69-4.33-1.93-8.39-4.5-13.25-5.11-4.51-.56-8.65,0-12.23,3-1.27,1.07-2.68,1.23-3.77-.07s-.77-2.83.51-4a18.11,18.11,0,0,1,12.55-4.5,32.07,32.07,0,0,1,15.46,4.33,26.73,26.73,0,0,0,3.44,1.69c2.67,1,4.72,0,5.7-2.76a9.87,9.87,0,0,0-.65-8.26c-3.24-6.13-8.67-9.66-15.12-11.29-14.58-3.69-27.27.07-37.33,11.22a26.76,26.76,0,0,0-6.82,22.75c1.09,7,5.95,11.66,13,12.92A13,13,0,0,1,519,733.86Z"/><path class="cls-2" d="M341.28,794.43a52.18,52.18,0,0,1-30.6-9.81c-9.12-6.44-13.31-15.41-12.11-26,.9-7.95,4.64-13.59,11.12-16.77a8.51,8.51,0,0,1,3.67-1,4.05,4.05,0,0,1,4.32,3.44,3.93,3.93,0,0,1-2.74,4.57c-6.14,2.33-9.25,7.44-8.54,14a20.44,20.44,0,0,0,9.72,15.61c8.33,5.38,17,8.11,25.63,8.11h0a45.53,45.53,0,0,0,15.88-3c8.55-3.18,13.3-9.32,14.13-18.24a10.56,10.56,0,0,0-.92-5.69c-1-2.14-2.26-2.41-3.21-2.41l-.41,0-1.49-1a9.28,9.28,0,0,0-2.1-3c-.36-.4-.72-.79-1.06-1.2l.5-2.2A11.36,11.36,0,0,1,368,748.8a10.29,10.29,0,0,1,8.53,4.65c3.6,5.12,4.31,11.32,2.14,18.44-3.44,11.25-11.56,18.34-24.13,21.07A62.67,62.67,0,0,1,341.28,794.43Z"/><path class="cls-2" d="M367.09,755.92c-.65-1.91-2.19-3.17-3.41-4.67a8.91,8.91,0,0,1,11.67,3c3.76,5.36,3.73,11.33,1.94,17.2-3.48,11.38-11.76,17.63-23.07,20.09-15.35,3.33-29.8,1-42.71-8.12-8.36-5.89-12.71-14.12-11.52-24.62.79-6.89,3.84-12.46,10.33-15.65a7.19,7.19,0,0,1,3.05-.86,2.63,2.63,0,0,1,2.9,2.27,2.52,2.52,0,0,1-1.84,3c-6.74,2.55-10.23,8.34-9.45,15.51a21.9,21.9,0,0,0,10.36,16.66c13.33,8.6,27.73,10.88,42.79,5.28,8.81-3.28,14.16-9.79,15.05-19.44a11.89,11.89,0,0,0-1.05-6.46C371.12,757.05,369.59,755.69,367.09,755.92Z"/><path class="cls-2" d="M539.74,795.34a53.52,53.52,0,0,1-30.46-9.44c-11-7.46-15-20.28-9.78-31.9a19.38,19.38,0,0,1,9.37-9.73,8.7,8.7,0,0,1,3.83-1c.21,0,.43,0,.64,0a3.89,3.89,0,0,1,3.66,3.21,3.75,3.75,0,0,1-2.69,4.59c-4.36,1-6.95,3.82-8.39,9.18-1.35,5-.3,9.78,3.11,14.24,3.61,4.72,8.64,8,15.85,10.25a53.7,53.7,0,0,0,16.32,2.72,41.25,41.25,0,0,0,15-2.78c8.43-3.27,13.05-8.88,14.13-17.13a12.26,12.26,0,0,0-.74-6c-.87-2.3-2.09-2.6-3.06-2.6l-.44,0-1.36-.67c-.16-.26-.31-.52-.46-.78-.94-1.61-1.53-2.54-2.87-2.75l-.52-2.64a11.23,11.23,0,0,1,5.82-1.68,10.86,10.86,0,0,1,9.79,6.56c2.6,5.62,2.62,11.8,0,18.37-3.66,9.36-10.85,15.42-21.37,18A64.36,64.36,0,0,1,539.74,795.34Z"/><path class="cls-2" d="M565.92,757.55c-1.08-1.77-1.91-3.81-4.33-4.2a9.26,9.26,0,0,1,13.57,4.27c2.64,5.7,2.23,11.56,0,17.23-3.66,9.36-10.85,14.8-20.38,17.15-15.91,3.92-31,2-44.72-7.29-10.6-7.17-14.13-19.24-9.28-30.13a18,18,0,0,1,8.7-9,6.83,6.83,0,0,1,3.7-.85,2.47,2.47,0,0,1,2.39,2.07,2.34,2.34,0,0,1-1.6,2.92c-5.54,1.25-8.11,5.21-9.46,10.2-1.53,5.68-.17,10.85,3.36,15.48,4.24,5.54,10.1,8.71,16.56,10.75,10.72,3.38,21.55,4.06,32.24-.09,8.34-3.25,13.82-9,15-18.28a13.77,13.77,0,0,0-.82-6.71C570.05,758.8,568.58,757.29,565.92,757.55Z"/><path class="cls-2" d="M466.69,766.74l-1.14-2.22a14.4,14.4,0,0,0,1.7-4.55l.21-.8.7-.9c3-1.66,5.18-4.37,6.7-8.55,3-8.11,3.5-16.69,3.63-23.26.22-10.58-.56-19.08-2.45-26.76a17.43,17.43,0,0,0-3.69-7.79,7.15,7.15,0,0,0-5.31-2.58,7,7,0,0,0-5.73,3.29c-2.38,3.51-3,7.77-3.34,11.49-.2,2-.3,4-.4,6l-.15,2.85c-.16,2.61-1.7,4.3-4,4.41h-.24a3.87,3.87,0,0,1-2.88-1.18,4.29,4.29,0,0,1-1.1-3.23l.09-2.09c.31-6.86.62-13.94,3.69-20.6,2.82-6.13,7.39-9.35,13.59-9.57h.62c5.73,0,10.26,2.84,13.48,8.44s4.18,11.35,4.8,16.41c1.91,15.67,1.55,28.65-1.14,40.85-1.09,4.93-3,11.22-7.87,16-3,2.93-5.94,4.29-9.29,4.29Z"/><path class="cls-2" d="M466.75,765.31a18.64,18.64,0,0,0,2.09-5.78c3.79-2.06,6-5.42,7.37-9.32,2.79-7.65,3.55-15.66,3.71-23.72.19-9.12-.29-18.22-2.49-27.13a19.11,19.11,0,0,0-4-8.4c-3.9-4.39-10-4-13.29.86-2.49,3.65-3.17,7.88-3.59,12.15-.29,3-.37,6-.55,8.94-.1,1.7-.9,3-2.65,3.07a2.52,2.52,0,0,1-2.72-2.9c.36-7.52.4-15.1,3.65-22.16,2.44-5.3,6.4-8.53,12.34-8.74s9.95,2.75,12.8,7.71,3.95,10.37,4.63,15.87c1.64,13.5,1.83,27-1.12,40.37-1.25,5.66-3.18,11.1-7.48,15.31C473,763.8,470.28,765.45,466.75,765.31Z"/><path class="cls-2" d="M269.61,766.18c1.66-1.82,2.11-4.29,3.39-6.31,4.55-3.55,6.07-8.7,7-14a122.33,122.33,0,0,0-.66-47.47,17.71,17.71,0,0,0-2.84-6.38c-3.67-5.27-10.45-4.83-13.31.9-2.37,4.78-2.59,10-2.94,15.19-.11,1.7,0,3.42,0,5.12s-.6,3-2.43,3.17c-1.52.18-2.85-1.13-2.88-3a93.11,93.11,0,0,1,.24-10c.48-5,1.09-10.09,3.9-14.48,5.6-8.73,17.13-8.36,22.42.68,2.94,5,4.06,10.61,4.68,16.28a149.4,149.4,0,0,1-.73,40,35.06,35.06,0,0,1-5,14C277.9,763.64,274.66,766.5,269.61,766.18Z"/><path class="cls-2" d="M176.84,755.94a14.17,14.17,0,0,0-3,5.13l-.1,0a27,27,0,0,0-7.64,6,1.89,1.89,0,0,1-1.54.85h-.06c-2.28-1.33-1.74-3.57-1.83-5.6,2.22-2.62,4.63-5,8-6.16C172.69,755.49,174.73,755.06,176.84,755.94Z"/><path class="cls-2" d="M641,799.66a39.51,39.51,0,0,1-21.73-5.95,27,27,0,0,1-12.33-19.06,25,25,0,0,1,5.79-20.16,19.35,19.35,0,0,1,14.82-7,23.07,23.07,0,0,1,4.81.53A11.48,11.48,0,0,1,640,753.4a11.16,11.16,0,0,1,.93,9.07c-1.19,3.9-4,6.07-8.34,6.48l-.76-.14a6.48,6.48,0,0,1-3.16-6.29l.81-1.19.35-.17c.31-.16.62-.32.94-.45,1.74-.71,1.83-1.33,1.77-2a2.6,2.6,0,0,0-2.31-2.39,12.23,12.23,0,0,0-2.45-.26,11.48,11.48,0,0,0-7.59,3c-5.2,4.46-6.64,12.57-3.43,19.27,3.09,6.45,8.5,10.44,16.56,12.18a37.36,37.36,0,0,0,20.06-1.15c9-3,14.75-9.42,17.54-19.6,2.07-7.56,2.47-15.52,2.58-23,.12-7.8.08-15.74,0-23.42,0-2.51,0-5,0-7.53a18.93,18.93,0,0,0-.16-2.07c-.06-.47-.11-.94-.14-1.41a7.32,7.32,0,0,1,1.62-5.75,7,7,0,0,1,5.39-2h.7a29.36,29.36,0,0,0,8.15-1,11.54,11.54,0,0,0,3.77-1.77c2.8-2.08,4.08-5.12,3.28-7.76s-3.35-4.23-6.93-4.24h-5.83c-7.33,0-13.47,0-19.29.14-7.53.12-15.19.31-22.59.49l-9.05.22c-.63,0-1.27,0-1.9.1-4.6.49-7,2.13-7.85,5.31-1.2,4.61,1.18,7.91,3.38,9.87,3.38,3,7.61,3.86,12.92,4.21.29,0,.57,0,.86,0a13,13,0,0,1,1.73.11,4,4,0,0,1,3.66,4.11,4.51,4.51,0,0,1-1.16,3.32,3.39,3.39,0,0,1-2.49,1h-.44c-4.42,0-10.2-.32-15.7-2.88a19.56,19.56,0,0,1-9.66-9.08c-4-8-2.42-16.4,4-21.43A16.29,16.29,0,0,1,629.81,682q21.38-.36,42.76-.64l17.17-.23a17.63,17.63,0,0,1,5.8.85,14,14,0,0,1,9.24,10.19,15.51,15.51,0,0,1-4,14.44c-4.5,4.66-10.22,5.89-15.22,6.48a13.84,13.84,0,0,1-1.45.11h-.68a1.29,1.29,0,0,0-.77.15s-.25.3-.24,1.33c0,10.06-.1,18.2-.32,25.63L682,742.7c-.26,8.9-.52,18.11-2.46,27.11-3.69,17.11-16.34,28.2-33.84,29.65C644.1,799.59,642.5,799.66,641,799.66Z"/><path class="cls-2" d="M630.07,762.62c.41-.19.8-.41,1.21-.58,1.56-.64,2.84-1.57,2.65-3.44a4,4,0,0,0-3.44-3.65,12.64,12.64,0,0,0-11.26,3c-5.73,4.92-7.25,13.77-3.79,21,3.56,7.44,9.8,11.28,17.55,13a38.88,38.88,0,0,0,20.81-1.19c10-3.36,15.75-10.65,18.47-20.58,2.1-7.64,2.51-15.49,2.63-23.34.16-10.33.05-20.66,0-31,0-1.19-.22-2.38-.3-3.57-.3-4.09,1.64-6.25,5.72-6.2a31.73,31.73,0,0,0,9.1-1.08,13,13,0,0,0,4.23-2c3.3-2.44,4.79-6.07,3.8-9.33s-4-5.24-8.29-5.25c-8.38,0-16.77,0-25.15.13-10.56.16-21.1.46-31.66.71-.67,0-1.34,0-2,.1-4.21.45-7.92,1.92-9.09,6.38s.44,8.3,3.82,11.3c3.91,3.47,8.79,4.24,13.78,4.57.82.06,1.65,0,2.46.13a2.6,2.6,0,0,1,2.45,2.72c0,1.54-.7,2.88-2.23,2.89-5.32,0-10.61-.46-15.53-2.75a18.13,18.13,0,0,1-9-8.42c-3.7-7.43-2.3-15,3.59-19.66a14.91,14.91,0,0,1,9.2-3.06q29.74-.48,59.5-.87a16.76,16.76,0,0,1,5.75.78c9.2,3.14,11.66,15,4.65,22.27-3.93,4.08-9,5.42-14.35,6a9.2,9.2,0,0,1-1.57.1c-2.09-.13-2.85.72-2.85,2.9,0,8.53-.05,17.06-.31,25.59-.29,9.78-.41,19.59-2.49,29.23C674.6,786,662.49,796.63,645.61,798c-9.11.75-17.72-.56-25.61-5.53-12.82-8.08-16-26-6.23-37.07a18,18,0,0,1,18.25-6,9.64,9.64,0,0,1,7.51,12.59c-1,3.33-3.35,5.12-7.1,5.47A5.11,5.11,0,0,1,630.07,762.62Z"/><path class="cls-2" d="M840.54,799.91a93.32,93.32,0,0,1-20.4-2.36c-9.71-2.18-15.77-8-18-17.34-3.21-13.24-1.49-25.39,5.11-36.1,3.11-5.06,7.8-9.05,14.76-12.56,1.19-.59,2.41-1.12,3.59-1.63l1.58-.69a2,2,0,0,1,.93-.26l.64.13c2.18,1,2.26,3,2.31,4.15,0,.27,0,.52.05.77a3.36,3.36,0,0,1-.62,2.72,2.73,2.73,0,0,1-1.88.91c-19,7.56-20.25,25.12-19.33,34.94.56,5.92,2.1,9.72,5.16,12.69a16.32,16.32,0,0,0,8,4.08,82.21,82.21,0,0,0,18.75,2.29,66.11,66.11,0,0,0,23.06-4.08c16.2-6,25-21.82,21.39-38.52-1.75-8.14-6.38-13.29-13.76-15.31-1.16-.32-3.88-1.06-4.29-4.16-.37-2.88,1.5-4.45,2.94-5.39,6.87-4.46,10.69-10.66,11.35-18.43.55-6.38-2.2-11.57-8.17-15.44-4.41-2.86-9.63-4.59-17-5.62a60.11,60.11,0,0,0-24.11,1.47,23.13,23.13,0,0,0-16.6,15A55.43,55.43,0,0,0,813,728.24c.68,5-2.34,5.76-3.29,5.89a3.39,3.39,0,0,1-.55,0,4.55,4.55,0,0,1-4.35-4.32c-1.33-13.84.27-25,5-35.16,4-8.57,11.21-14.14,21.31-16.57A75,75,0,0,1,848.67,676a65,65,0,0,1,22.6,4c10.32,3.81,16.24,9.93,18.09,18.73,2.3,10.89-1.09,20.67-10.06,29.07a25.71,25.71,0,0,1,9.37,8.09c5.85,8.53,7.5,18.52,4.92,29.69-3.51,15.16-13.21,25.44-28.83,30.54A77.82,77.82,0,0,1,840.54,799.91Z"/><path class="cls-2" d="M828.26,736.23c-16.8,6.59-21.87,21.25-20.44,36.49.48,5.08,1.74,9.85,5.6,13.59a17.85,17.85,0,0,0,8.67,4.44c14.38,3.38,28.67,3.33,42.64-1.83,16.9-6.25,26-22.75,22.29-40.17-1.76-8.17-6.35-14.09-14.78-16.39-1.59-.43-3-1.08-3.25-3s.82-3,2.3-4c7.09-4.59,11.28-11.11,12-19.51.63-7.3-2.77-12.84-8.82-16.77-5.33-3.45-11.33-5-17.54-5.83a61.7,61.7,0,0,0-24.68,1.5c-8.55,2.27-14.48,7.54-17.57,15.85a56.62,56.62,0,0,0-3.15,27.8c.35,2.51-.37,4.05-2.07,4.29a3,3,0,0,1-3.27-3c-1.14-11.87-.25-23.45,4.92-34.42,4.11-8.72,11.21-13.59,20.34-15.79,13.28-3.19,26.47-2.93,39.32,1.81C879.2,684.43,886,689.62,888,699c2.37,11.22-1.67,20.38-9.88,28-.32.3-.68.58-1,.87a2.21,2.21,0,0,0-.18.33,25.46,25.46,0,0,1,10.61,8.52c6,8.79,7,18.48,4.7,28.56-3.52,15.18-13.3,24.74-27.87,29.5s-29.13,4.72-43.86,1.41c-8.92-2-14.8-7.35-17-16.28-3-12.27-1.79-24.09,4.94-35,3.4-5.52,8.5-9.16,14.19-12,1.66-.84,3.4-1.53,5.1-2.29.14-.06.3-.17.41-.13,1.73.76,1.34,2.43,1.52,3.8C829.78,735.13,829.67,736.21,828.26,736.23Z"/><path class="cls-2" d="M743.7,798.5a45.06,45.06,0,0,1-18.57-3.87c-10-4.51-17.08-12.41-20.94-23.49-8.48-24.39-5.44-46.9,9-66.91,7-9.68,17.14-15.72,31-18.49a65.86,65.86,0,0,1,12.82-1.33,51.33,51.33,0,0,1,19.32,3.67c11.11,4.48,17.58,11.54,19.78,21.57,2.13,9.67-2.19,20.68-10.26,26.18l-1.07.23a4.45,4.45,0,0,1-3.17-2.33,4.66,4.66,0,0,1,0-4.15,7,7,0,0,1,1-1.61,22.61,22.61,0,0,0,5.06-8.44c2.09-7.33-.46-14.41-7-19.43s-14.28-7.37-23.87-7.37h-1.17c-14.48.29-25.62,5-34,14.41-6.68,7.46-11,16.91-12.67,28.08-1.75,11.41-.94,21.75,2.47,31.63,5.06,14.64,17.11,23.38,32.23,23.38a40.51,40.51,0,0,0,4.23-.22c10.51-1.07,18.67-4.84,24.95-11.52,6.65-7.08,10.18-15.75,10.81-26.5,0-.32,0-.63,0-1s0-.69,0-1c.08-2.82,1.62-4.53,4.11-4.58h0c2.57,0,4.11,1.67,4.24,4.47a40.16,40.16,0,0,1-1,9.47c-2.27,11.87-7.35,21.08-15.52,28.15a45.39,45.39,0,0,1-23.38,10.33A56.55,56.55,0,0,1,743.7,798.5Z"/><path class="cls-2" d="M783.75,728.88a23.57,23.57,0,0,0,5.34-9c2.26-7.91-.58-15.65-7.53-21-7.68-5.88-16.56-7.84-25.94-7.65-13.62.27-25.77,4.48-35.09,14.89-7.34,8.19-11.35,18-13,28.82a66.44,66.44,0,0,0,2.53,32.31c5.81,16.82,20.23,25.92,38,24.12,10.07-1,18.85-4.51,25.85-12,7.23-7.69,10.59-17,11.2-27.4,0-.67,0-1.34,0-2,.05-1.77.75-3.15,2.71-3.19s2.7,1.34,2.78,3.11a39.55,39.55,0,0,1-.94,9.13c-2.06,10.73-6.69,20.09-15.06,27.33a43.67,43.67,0,0,1-22.66,10c-9,1.35-17.77.63-26.13-3.12-10.09-4.53-16.64-12.5-20.17-22.65-8.1-23.26-5.78-45.4,8.84-65.6,7.36-10.19,18-15.5,30.12-17.93,10.64-2.12,21.21-1.82,31.33,2.27,9.42,3.81,16.6,10.05,18.91,20.54,2,9.06-2.17,19.59-9.67,24.7a3.08,3.08,0,0,1-2.16-4.47A6,6,0,0,1,783.75,728.88Z"/><path class="cls-1" d="M772.55,734.52c-.14-.58-.31-1.16-.43-1.74-2.36-11.84-12.9-17.76-24.44-14-18.46,6-26.24,25.7-23.7,39.92,1.68,9.42,8.93,15.71,18.47,15.59,10-.12,17.2-5.28,22.69-13.17a45.58,45.58,0,0,0,7.37-19.3A8.69,8.69,0,0,0,772.55,734.52Zm-11.87,17.85c-3.37,6.32-7.78,11.53-15.22,13.21-6.5,1.48-11.73-1.75-13.07-8.3-1.69-8.22.86-15.42,5.67-22.21,2.69,9.82,9.52,12.44,25.38,9.86A20.31,20.31,0,0,1,760.68,752.37Zm1.88-15a32.56,32.56,0,0,1-7.09.91,12.15,12.15,0,0,1-6.88-1.61,4.82,4.82,0,0,1-2.48-4.69,5.29,5.29,0,0,1,3.08-4.6c6.8-3.19,13.91-.21,15.49,6.56C765.3,736.57,765.15,736.83,762.56,737.34Z"/><path class="cls-1" d="M844.41,732.74a31.17,31.17,0,0,0-7.9,2.42c0-1.25-.36-2.29.24-3.27.43-2,0-4.08.32-6.11a1.42,1.42,0,0,1,0-.2c0-.13,0-.26,0-.38a1.76,1.76,0,0,0-.26.59c-.42-7.31.57-14.25,5.49-20.09,2.2-2.6,5.37-3,8.44-3.55a1.35,1.35,0,0,0,.08.36l.12-.09a.31.31,0,0,1,0-.1c1.61-2.85,1.55-4.46-.21-6.26a6.91,6.91,0,0,0-4.54-.71c-7.37.69-11.4,5.57-14.26,11.71-2.26,4.87-2.78,10.14-3.26,15.43-.24,2.68.46,5.49-.9,8a4.33,4.33,0,0,1,.53,5.69c.09,2.23.19,4.46.27,6.7.23,6.65-.08,13.31.56,20,.69,7,3.45,10.11,10.42,11.42a30.57,30.57,0,0,0,5.81.31,21.77,21.77,0,0,0,21.38-17.35C869.93,742.54,859.33,730.91,844.41,732.74ZM851,765c-3.73,1.65-7.55,1.48-11.45.77-1.37-.25-1.6-1.21-1.85-2.21-1-3.8-.94-7.71-1.12-11.59,0-.15,0-.3,0-.45.08-2.18-1.15-4.7.5-6.48a13.16,13.16,0,0,1,9-4c6.21-.39,11.32,2.95,12.62,8.18A14,14,0,0,1,851,765Z"/><path class="cls-1" d="M955.78,723.86c-4.59-.3-6.18-1.56-7.72-5.61-1.46-3.8-4.63-5.34-8.45-5.61a11.39,11.39,0,0,0-12.14,12.79,8.44,8.44,0,0,0,6.1,7.31,34.46,34.46,0,0,0,7.26,1.37c11.24,1.3,17.85,9.21,16.7,20a19.46,19.46,0,0,1-20.87,17.6c-7-.56-12.6-3.37-15.78-10-.9-1.89-.91-3.89-1.13-5.89.76-2,2.37-3.25,3.78-4.68,2.18.93,3.18,2.76,3.9,4.89a10.92,10.92,0,0,0,13.48,7,11.52,11.52,0,0,0,8.31-12.69c-.72-4.19-3.84-6.89-8.8-7.62-3.25-.48-6.56-.68-9.66-1.88-10.86-4.18-15-15.66-9.28-26,6.08-11.13,21.3-13.94,30.13-5.56a10.11,10.11,0,0,1,3.51,5.85,3.06,3.06,0,0,0,3.33,3.08C958.34,720.44,958,722.6,955.78,723.86Z"/><path class="cls-2" d="M914.92,742.49a6.82,6.82,0,0,1-2.31-.44c-7.73-2.81-13-8.41-15.63-16.66-3-9.49-1.59-21.27,3.77-30.75a38.71,38.71,0,0,1,25.54-18.87,53.88,53.88,0,0,1,12.49-1.51,47.48,47.48,0,0,1,21.88,5.33c9.4,4.82,14.55,11.52,15.72,20.48,1.39,10.54-4.8,21-14.39,24.45a14.15,14.15,0,0,1-4.77.87,12.75,12.75,0,0,1-1.63-.11l-.85-2.4a8.83,8.83,0,0,0,1.65-3.3c.22-.65.46-1.32.76-2l1.18-.84c2.25-.19,4.64-1.71,6.58-4.17a15.52,15.52,0,0,0,3.3-11.5,17.24,17.24,0,0,0-6.2-10.7c-5.88-5-14.56-7.92-23.81-7.92-11.08,0-20.82,4.13-26.7,11.35-7.44,9.12-9.59,19.05-6.4,29.52a16,16,0,0,0,10.29,10.81,5.59,5.59,0,0,1,3.42,2.74,3.81,3.81,0,0,1,.05,3A4,4,0,0,1,914.92,742.49Z"/><path class="cls-2" d="M955.78,723.86c1.51-1.6,1.81-3.77,2.67-5.68,6.3-.53,12.41-9.33,11.17-17.32a18.57,18.57,0,0,0-6.68-11.57c-13.3-11.4-40-11.76-52.55,3.61-7.39,9.07-10.15,19.38-6.66,30.85a17.43,17.43,0,0,0,11.17,11.74c2.3.83,3.26,2.21,2.62,3.9s-2.27,2.09-4.42,1.31c-7.57-2.75-12.33-8.18-14.75-15.75-5.18-16.2,2.81-41.76,28.27-47.79,11.54-2.73,22.77-1.75,33.38,3.7,8,4.09,13.74,10,15,19.4,1.31,10-4.44,19.72-13.45,22.91A12,12,0,0,1,955.78,723.86Z"/><path class="cls-2" d="M938.74,798.15c-10.3,0-18.73-2.8-25.78-8.55-9.8-8-13.7-17.75-11.59-29,1.4-7.47,6.83-12.57,14.17-13.3.5,0,1-.08,1.5-.08a10.37,10.37,0,0,1,7.49,2.89l.35,1.49a11.42,11.42,0,0,1-3.4,4.55l-.73.7-1.71.22a6.79,6.79,0,0,0-3.35-1c-2.28,0-4.17,1.49-5.33,4.18a15.61,15.61,0,0,0-.07,12c3.18,8.47,9.5,13.84,19.34,16.4a39,39,0,0,0,9.79,1.31,31.86,31.86,0,0,0,15.49-4c8.55-4.66,13.51-12.39,14.75-23,1-8.85-1-16-6.21-21.85a9.72,9.72,0,0,0-3.64-2.6c-2.61-1.08-3.6-3.08-2.72-5.49a4.07,4.07,0,0,1,3.93-2.67,5.48,5.48,0,0,1,2.43.6,23.4,23.4,0,0,1,10.15,10.11c6.26,11.48,5.95,27-.78,38.72-6.53,11.36-18.08,17.83-32.52,18.23Z"/><path class="cls-2" d="M923.53,751.15c-.7,2-2.34,3.27-3.78,4.68-4.34-2.45-8.63-1-10.71,3.88a17,17,0,0,0-.09,13.1c3.56,9.51,10.85,14.82,20.32,17.28,9.05,2.36,18,1.79,26.33-2.78,9.51-5.19,14.25-13.59,15.48-24.06,1-8.5-.68-16.37-6.56-23a11.3,11.3,0,0,0-4.16-3c-1.66-.68-2.61-1.8-1.92-3.67.59-1.62,2.48-2.21,4.37-1.28a22,22,0,0,1,9.53,9.52c11,20.09,1.49,53.91-32.08,54.82-9.74.27-18.76-2-26.4-8.2-8.7-7.1-13.23-16.15-11.08-27.62,1.29-6.9,6.33-11.48,12.9-12.14A9.42,9.42,0,0,1,923.53,751.15Z"/><path class="cls-1" d="M630.07,762.62c.78,1.64,1.13,3.48,2.36,4.9-2,.93-2.23,2.4-1.3,4.23,1.47,2.87,4,4,7,4a8.56,8.56,0,0,0,8-4.78,19.77,19.77,0,0,0,2.24-8.84c.38-8.67.86-17.35.13-26-.15-1.9.21-3.62,1.92-4.74a4.45,4.45,0,0,1,4.88,0,3.84,3.84,0,0,1,2.1,4.11c-1,7.83-.29,15.7-.58,23.55-.19,5.41-.53,10.74-3.06,15.71-4.77,9.37-17.64,12.38-26,6a13.89,13.89,0,0,1-5.3-9.08C621.63,766,624.08,763.09,630.07,762.62Z"/><path class="cls-2" d="M859,710.72a20.43,20.43,0,0,1-4.65,8.33c-4.91,5.55-11,9.53-17.59,12.84a9.25,9.25,0,0,1,0-6.1,1.76,1.76,0,0,1,.26-.59c0,.12,0,.25,0,.38,2.39-1.58,4.84-3.07,7.13-4.78,3.73-2.8,7.18-5.89,9-10.35,1.38-3.33.57-6.23-2.29-8.13a.31.31,0,0,0,0,.1l-.12.09a1.35,1.35,0,0,1-.08-.36c.68-2,1.34-4,0-6.09C857.41,697.6,860.85,703.71,859,710.72Z"/><path class="cls-1" d="M658,721.39a5.34,5.34,0,1,1-10.68.15,5.3,5.3,0,0,1,5.31-5.43A5.06,5.06,0,0,1,658,721.39Z"/><path class="cls-2" d="M772.51,741.83q0-3.66,0-7.31c4.09-1.18,8-2.68,11.2-5.64-.39,2.12-1.5,4.39,1.33,5.77C781.47,738.05,777.08,740.09,772.51,741.83Z"/><path class="cls-3" d="M837,725.2a1.76,1.76,0,0,0-.26.59l.31-.21C837,725.45,837,725.32,837,725.2Zm13.67-23.05a1.35,1.35,0,0,0,.08.36l.12-.09a.31.31,0,0,1,0-.1A2.2,2.2,0,0,0,850.65,702.15Z"/><path class="cls-4" d="M670.41,556.11c19.5,23.22,39.77,47.34,60.58,72.1-2.1.23-3.43.49-4.75.49-25.91,0-51.83.13-77.74-.11a11.12,11.12,0,0,1-7.23-3.42c-7.31-8.12-14.2-16.6-20.65-24.25-14,6.23-27.12,13.25-41,18-105.52,36.15-220-27-245-135.7-19.88-86.29,22.19-172.17,102.81-211,96.93-46.73,216.88-1.08,256.9,97.93,1.31,3.25,1.74,5.78-.66,9-17.82,24-35.41,48.23-53.08,72.38-.51.69-1.08,1.32-1.73,2.11-.56-10.05-.16-19.92-1.81-29.44-8.32-48.25-35.34-82-82.09-96.66-47.62-15-90.36-3.34-124,33.64-30.38,33.37-39.32,73.31-25.61,116.59,13.8,43.56,44.48,70.41,88.75,80.59,48.21,11.09,98.6-10.89,126.08-52,22.08-33.05,45.39-65.27,68.44-97.66,13.64-19.17,27.85-37.93,41.79-56.89.75-1,1.34-2.12,2.32-3.69l-25.87-19.52,110.53-40.83c-2.25,39.8-4.45,78.69-6.71,118.66-9.25-6.81-17.81-13.13-26.74-19.72Q727.17,471.4,670.41,556.11Zm-220-65.55c-.5-7.29-8.56-11.69-15.52-9.6-6.09,1.83-10.79,8.72-8.33,13.12,6,10.79,13.48,20.48,24,28.57C450.59,511.42,451.12,501,450.4,490.56ZM608.9,442c-.93-2.18-1.83-4.38-2.91-6.49C600.6,425,586.18,424,580.08,434.16c-2,3.35-2.8,7.91-2.83,11.93-.21,26.47,0,52.93,0,79.4,0,1.38.18,2.77.28,4.3,13.94-7.3,15-8.94,15.12-23.46,0-2.37,0-4.74,0-7.12v-8.76l1.34-.12,11.63,14.42c1.49-2.19,2.64-3.83,3.73-5.5,5-7.7,5.23-7.88-.34-14.85-4.82-6-2.66-12.48-3.07-18.32l17,11c2.37-4.07,4.08-7,6.23-10.7C616.49,462.89,613.17,452.1,608.9,442Zm-40.68,89q-.78-36.82-1.61-73.65a20.73,20.73,0,0,0-.16-2.73,14.33,14.33,0,0,0-14-12.17c-8.86-.23-15.26,6-15.36,15.51-.16,16.22-.27,32.45.06,48.67A38.4,38.4,0,0,1,532.24,527c-3.61,6.41-6.51,13.22-10.16,20.77,4.34-.38,7.4-.87,10.46-.86,5.17,0,8.06-2.29,10.23-7.09,4.29-9.49,10.45-18.24,9.41-29.59l1.43.07,10.54,26.86C569,536.8,568.27,533.67,568.22,531Zm-41.65-16.19c1.16-14.49.31-29.14.12-43.72a20.11,20.11,0,0,0-1.43-7.42c-2.63-6.21-9-9.25-15.76-7.91s-11.38,7.12-11.45,14.73c-.14,15.86.13,31.73-.16,47.58a25.11,25.11,0,0,1-2.9,10.15c-2.39,4.83-5.48,9.32-8.55,14.4,3.24,1,5.84,1.76,8.37,2.65,4.17,1.47,7,.74,9.11-3.7,2.65-5.51,6.18-10.61,9.69-16.49l4.77,11.7C521.58,528.62,526,521.89,526.57,514.85Zm-38.9,6.27c1.24-12.83.44-25.87.28-38.83-.11-8.32-6-14.42-13.4-14.35s-13.59,6.32-13.69,14.3c-.18,15-.12,29.93,0,44.89,0,1.45.59,3.61,1.63,4.23,5.09,3,10.43,5.7,16.89,9.13C482.5,533.5,487.05,527.5,487.67,521.12ZM593.61,392.27c-8.11.2-13.94,6.22-14,14.42s6.26,14.72,14.38,14.66a14.4,14.4,0,0,0,14.25-14.86A14,14,0,0,0,593.61,392.27Zm-27.09,29.94a13.86,13.86,0,1,0-13.68,14A13.6,13.6,0,0,0,566.52,422.21Zm-40.64,14.25a13.12,13.12,0,0,0-12.63-13.19,12.87,12.87,0,0,0-13.32,12.91c-.08,7.6,5.39,13.32,12.79,13.38A12.82,12.82,0,0,0,525.88,436.46Zm-50.79,1.3a12.2,12.2,0,1,0-.3,24.4c6.88.09,11.91-4.94,12-12A11.83,11.83,0,0,0,475.09,437.76Zm-48,25.85c0,5.76,5.21,11.1,11.09,11.35a11,11,0,0,0,11.35-10.78,11.15,11.15,0,0,0-10.87-11.84A11.55,11.55,0,0,0,427.06,463.61Z"/></svg>